<?xml version="1.0" encoding="UTF-8"?><svg id="Layer_1" xmlns="http://www.w3.org/2000/svg" viewBox="0 0 86.53 86.53"><path d="M43.26,7.8c11.55,0,12.92,.04,17.48,.25,4.22,.19,6.51,.9,8.03,1.49,2.02,.78,3.46,1.72,4.97,3.24,1.51,1.51,2.45,2.96,3.24,4.97,.59,1.52,1.3,3.82,1.49,8.03,.21,4.56,.25,5.93,.25,17.48s-.04,12.92-.25,17.48c-.19,4.22-.9,6.51-1.49,8.03-.78,2.02-1.72,3.46-3.24,4.97-1.51,1.51-2.96,2.45-4.97,3.24-1.52,.59-3.82,1.3-8.03,1.49-4.56,.21-5.93,.25-17.48,.25s-12.92-.04-17.48-.25c-4.22-.19-6.51-.9-8.03-1.49-2.02-.78-3.46-1.72-4.97-3.24-1.51-1.51-2.45-2.96-3.24-4.97-.59-1.52-1.3-3.82-1.49-8.03-.21-4.56-.25-5.93-.25-17.48s.04-12.92,.25-17.48c.19-4.22,.9-6.51,1.49-8.03,.78-2.02,1.72-3.46,3.24-4.97,1.51-1.51,2.96-2.45,4.97-3.24,1.52-.59,3.82-1.3,8.03-1.49,4.56-.21,5.93-.25,17.48-.25m0-7.8c-11.75,0-13.22,.05-17.84,.26-4.6,.21-7.75,.94-10.5,2.01-2.84,1.11-5.26,2.58-7.66,4.99-2.41,2.41-3.88,4.82-4.99,7.66-1.07,2.75-1.8,5.9-2.01,10.5-.21,4.61-.26,6.09-.26,17.84s.05,13.22,.26,17.84c.21,4.6,.94,7.75,2.01,10.5,1.11,2.84,2.58,5.26,4.99,7.66,2.41,2.41,4.82,3.88,7.66,4.99,2.75,1.07,5.9,1.8,10.5,2.01,4.61,.21,6.09,.26,17.84,.26s13.22-.05,17.84-.26c4.6-.21,7.75-.94,10.5-2.01,2.84-1.11,5.26-2.58,7.66-4.99,2.41-2.41,3.88-4.82,4.99-7.66,1.07-2.75,1.8-5.9,2.01-10.5,.21-4.61,.26-6.09,.26-17.84s-.05-13.22-.26-17.84c-.21-4.6-.94-7.75-2.01-10.5-1.11-2.84-2.58-5.26-4.99-7.66-2.41-2.41-4.82-3.88-7.66-4.99-2.75-1.07-5.9-1.8-10.5-2.01-4.61-.21-6.09-.26-17.84-.26h0Z"/><path d="M43.26,21.05c-12.27,0-22.22,9.95-22.22,22.22s9.95,22.22,22.22,22.22,22.22-9.95,22.22-22.22-9.95-22.22-22.22-22.22Zm0,36.64c-7.96,0-14.42-6.46-14.42-14.42s6.46-14.42,14.42-14.42,14.42,6.46,14.42,14.42-6.46,14.42-14.42,14.42Z"/><circle cx="66.36" cy="20.17" r="5.19"/></svg>