<?xml version="1.0" encoding="UTF-8"?>
<svg id="Layer_1" xmlns="http://www.w3.org/2000/svg" viewBox="0 0 85.9 85.97">
    <defs>
        <style>.cls-1{fill:#fff;}.cls-2{fill:#a60023;}</style>
    </defs>
    <g id="art">
        <g>
            <circle class="cls-1" cx="42.95" cy="42.95" r="42.95" />
            <path class="cls-2"
                d="M42.95,0C19.23,0,0,19.23,0,42.95c0,18.21,11.31,33.76,27.29,40.02-.39-3.39-.71-8.63,.14-12.34,.78-3.36,5.02-21.35,5.02-21.35,0,0-1.27-2.58-1.27-6.36,0-5.97,3.46-10.43,7.78-10.43,3.68,0,5.44,2.76,5.44,6.05,0,3.68-2.33,9.19-3.57,14.32-1.03,4.28,2.16,7.78,6.36,7.78,7.64,0,13.5-8.06,13.5-19.66,0-10.29-7.39-17.46-17.96-17.46-12.23,0-19.41,9.16-19.41,18.63,0,3.68,1.41,7.64,3.18,9.79,.35,.42,.39,.81,.28,1.24-.32,1.34-1.06,4.28-1.2,4.88-.18,.78-.64,.95-1.45,.57-5.37-2.51-8.73-10.32-8.73-16.65,0-13.54,9.83-25.98,28.39-25.98,14.88,0,26.48,10.61,26.48,24.82s-9.33,26.73-22.27,26.73c-4.35,0-8.45-2.26-9.83-4.95,0,0-2.16,8.2-2.69,10.22-.95,3.75-3.57,8.41-5.34,11.28,4.03,1.24,8.27,1.91,12.73,1.91,23.72,0,42.95-19.23,42.95-42.95C85.9,19.23,66.67,0,42.95,0Z" />
        </g>
    </g>
</svg>