<?xml version="1.0" encoding="UTF-8"?><svg id="Layer_1" xmlns="http://www.w3.org/2000/svg" viewBox="0 0 359.85 399.05"><defs><style>.cls-1,.cls-2{fill:#fff;}.cls-3{fill:#55d9dd;}.cls-2{stroke:#55d9dd;stroke-miterlimit:10;stroke-width:.1px;}</style></defs><path class="cls-3" d="M179.93,0C80.56,0,0,80.56,0,179.93s80.56,179.93,179.93,179.93,179.93-80.56,179.93-179.93S279.29,0,179.93,0Zm0,354.26c-96.28,0-174.33-78.05-174.33-174.33S83.65,5.59,179.93,5.59s174.33,78.05,174.33,174.33-78.05,174.33-174.33,174.33Z"/><g><path class="cls-1" d="M179.93,4.37C82.97,4.37,4.37,82.97,4.37,179.93s78.6,175.56,175.56,175.56,175.56-78.6,175.56-175.56S276.88,4.37,179.93,4.37Zm0,324.25c-82.12,0-148.7-66.57-148.7-148.7S97.8,31.23,179.93,31.23s148.69,66.57,148.69,148.7-66.57,148.7-148.69,148.7Z"/><circle class="cls-2" cx="179.96" cy="358.47" r="39.14"/></g><path class="cls-3" d="M179.93,317.83c-22.43,0-40.61,18.18-40.61,40.61s18.18,40.61,40.61,40.61,40.61-18.18,40.61-40.61-18.18-40.61-40.61-40.61Zm0,78.41c-20.87,0-37.79-16.92-37.79-37.79s16.92-37.79,37.79-37.79,37.79,16.92,37.79,37.79-16.92,37.79-37.79,37.79Z"/></svg>