<?xml version="1.0" encoding="UTF-8"?>
<svg id="Layer_1" xmlns="http://www.w3.org/2000/svg" viewBox="0 0 92.06 86.53">
    <defs>
        <style>.cls-1{fill:#030303;}.cls-2{fill:#fff;}</style>
    </defs>
    <path class="cls-2"
        d="M46.6,85.57c-.23,0-.46,0-.69-.02-.15,.01-.3,.02-.45,.02-5.34,0-8.77-2.42-12.08-4.77-2.29-1.62-4.45-3.14-6.99-3.57-1.24-.21-2.48-.31-3.67-.31-2.15,0-3.85,.33-5.09,.57-.75,.15-1.4,.27-1.9,.27s-1.07-.11-1.32-.94c-.21-.72-.36-1.41-.51-2.09-.38-1.73-.65-2.8-1.37-2.91-8.47-1.31-10.9-3.09-11.44-4.36-.08-.18-.12-.36-.13-.54-.03-.49,.32-.92,.8-.99,13.02-2.14,18.86-15.45,19.1-16.02,0-.01,.01-.03,.02-.05,.8-1.62,.95-3.02,.47-4.17-.89-2.1-3.81-3.03-5.74-3.64-.47-.15-.92-.29-1.27-.43-3.85-1.52-4.17-3.08-4.02-3.88,.26-1.36,2.07-2.3,3.54-2.3,.4,0,.75,.07,1.05,.21,1.73,.81,3.29,1.22,4.64,1.22,1.86,0,2.67-.78,2.77-.88-.05-.88-.11-1.8-.17-2.75-.39-6.15-.87-13.81,1.08-18.17C29.07,1.99,41.45,.97,45.1,.97c.09,0,1.6-.02,1.6-.02h.22c3.66,0,16.07,1.02,21.91,14.12,1.95,4.37,1.47,12.02,1.08,18.18l-.02,.27c-.05,.86-.11,1.69-.15,2.49,.09,.1,.84,.81,2.53,.88h0c1.28-.05,2.76-.46,4.37-1.21,.47-.22,1-.27,1.36-.27,.55,0,1.1,.11,1.56,.3h.03c1.31,.48,2.16,1.39,2.18,2.35,.02,.9-.67,2.26-4.05,3.59-.35,.14-.8,.28-1.27,.43-1.93,.61-4.84,1.54-5.74,3.64-.49,1.15-.33,2.55,.47,4.17,0,.02,.01,.03,.02,.05,.24,.57,6.07,13.87,19.1,16.02,.48,.08,.82,.51,.8,.99-.01,.18-.06,.37-.13,.54-.54,1.26-2.96,3.04-11.43,4.35-.69,.11-.96,1.01-1.38,2.9-.15,.69-.3,1.36-.51,2.07-.18,.62-.56,.91-1.21,.91h-.1c-.45,0-1.09-.08-1.9-.24-1.44-.28-3.04-.54-5.09-.54-1.2,0-2.43,.1-3.67,.31-2.54,.42-4.7,1.95-6.99,3.56-3.32,2.35-6.75,4.77-12.09,4.77" />
    <path class="cls-1"
        d="M46.92,1.91c3.47,0,15.41,.93,21.04,13.55,1.85,4.15,1.38,11.68,1,17.73-.06,.96-.12,1.89-.17,2.78l-.02,.38,.26,.29c.1,.11,1.06,1.12,3.21,1.2h.04s.03,0,.03,0c1.42-.05,3.01-.49,4.75-1.31,.25-.12,.59-.18,.95-.18,.41,0,.85,.08,1.2,.23l.05,.02c.91,.32,1.55,.92,1.56,1.46,0,.31-.23,1.41-3.45,2.69-.32,.13-.73,.26-1.21,.41-2.1,.67-5.26,1.67-6.33,4.18-.6,1.42-.44,3.09,.49,4.96,.38,.89,6.36,14.36,19.83,16.58,0,.06-.02,.13-.06,.22-.23,.54-1.68,2.39-10.7,3.79-1.41,.22-1.76,1.8-2.16,3.64-.14,.66-.29,1.32-.49,2.01-.06,.21-.07,.22-.3,.22h-.11c-.4,0-1.01-.08-1.71-.22-1.28-.25-3.03-.56-5.27-.56-1.25,0-2.54,.11-3.83,.32-2.76,.46-5.01,2.05-7.39,3.73-3.19,2.26-6.5,4.59-11.53,4.59-.22,0-.43,0-.65-.02h-.06s-.06,0-.06,0c-.12,.01-.25,.02-.38,.02-5.04,0-8.34-2.33-11.53-4.59-2.38-1.68-4.63-3.27-7.39-3.73-1.29-.21-2.58-.32-3.83-.32-2.24,0-3.99,.34-5.27,.59-.7,.14-1.31,.26-1.71,.26-.33,0-.33-.02-.4-.26-.2-.69-.35-1.37-.49-2.03-.4-1.84-.75-3.43-2.16-3.65-9.03-1.39-10.48-3.25-10.71-3.79-.04-.08-.05-.16-.05-.22,13.46-2.22,19.45-15.69,19.83-16.58,.92-1.88,1.09-3.54,.49-4.96-1.07-2.51-4.23-3.51-6.33-4.18-.48-.15-.89-.28-1.21-.41-2.72-1.08-3.56-2.16-3.43-2.81,.14-.76,1.46-1.53,2.6-1.53,.26,0,.48,.04,.65,.12,1.86,.87,3.56,1.31,5.04,1.31,2.34,0,3.38-1.09,3.49-1.21l.25-.28-.02-.38c-.05-.89-.11-1.82-.17-2.78-.38-6.05-.85-13.57,1-17.72C29.71,2.89,41.59,1.92,45.1,1.92c.09,0,1.61-.01,1.61-.01h.21Zm0-1.91h-.23s-1.48,.01-1.59,.01C41.3,.01,28.43,1.07,22.36,14.69c-2.04,4.58-1.55,12.36-1.16,18.61,.05,.74,.1,1.5,.14,2.24-.31,.17-.89,.39-1.79,.39-1.21,0-2.63-.38-4.23-1.13-.43-.2-.92-.3-1.46-.3-1.88,0-4.13,1.24-4.47,3.08-.25,1.33,.34,3.26,4.6,4.95,.38,.15,.85,.3,1.34,.45,1.76,.56,4.42,1.4,5.15,3.11,.37,.88,.22,2.02-.44,3.37-.01,.03-.03,.06-.04,.09-.23,.54-5.87,13.39-18.38,15.45-.96,.16-1.65,1.02-1.6,1.99,.02,.29,.08,.58,.2,.86,.94,2.19,4.9,3.8,12.11,4.92,.24,.33,.49,1.48,.65,2.18,.15,.69,.31,1.41,.53,2.16,.22,.74,.78,1.62,2.23,1.62,.59,0,1.28-.14,2.08-.29,1.2-.24,2.85-.56,4.91-.56,1.14,0,2.33,.1,3.52,.3,2.33,.39,4.31,1.79,6.59,3.4,3.28,2.32,6.99,4.94,12.64,4.94,.15,0,.31,0,.47-.02,.18,0,.42,.02,.67,.02,5.65,0,9.36-2.62,12.64-4.94,2.29-1.62,4.27-3.02,6.6-3.41,1.19-.2,2.38-.3,3.52-.3,1.97,0,3.52,.25,4.91,.52,.87,.17,1.57,.26,2.08,.26h.11c1.07,0,1.83-.57,2.13-1.59,.22-.74,.37-1.43,.53-2.14,.15-.7,.4-1.85,.64-2.17,7.22-1.12,11.18-2.72,12.11-4.91,.12-.28,.19-.57,.21-.86,.05-.98-.63-1.83-1.6-1.99-12.52-2.06-18.15-14.91-18.38-15.45-.01-.03-.03-.06-.04-.09-.67-1.36-.82-2.49-.44-3.37,.72-1.7,3.38-2.55,5.15-3.1,.49-.16,.95-.31,1.34-.45,3.12-1.23,4.69-2.75,4.65-4.5-.03-1.38-1.1-2.6-2.8-3.21h0c-.57-.24-1.25-.37-1.92-.37-.46,0-1.13,.06-1.76,.36-1.48,.7-2.82,1.07-3.97,1.13-.76-.03-1.26-.23-1.55-.38,.04-.63,.08-1.29,.12-1.97l.02-.27c.4-6.25,.88-14.04-1.16-18.62C63.63,1.06,50.73,0,46.92,0" />
</svg>