<?xml version="1.0" encoding="UTF-8"?>
<svg id="Layer_1" xmlns="http://www.w3.org/2000/svg" viewBox="0 0 106.49 86.53">
    <defs>
        <style>.cls-1{fill:#1d80b2;}</style>
    </defs>
    <path class="cls-1"
        d="M106.49,10.24c-3.96,1.74-8.18,2.89-12.58,3.45,4.53-2.7,7.98-6.95,9.6-12.07-4.22,2.52-8.88,4.29-13.84,5.28-4.01-4.27-9.72-6.91-15.95-6.91-12.09,0-21.82,9.81-21.82,21.84,0,1.73,.15,3.39,.51,4.98C34.26,25.93,18.2,17.23,7.41,3.98c-1.88,3.27-2.99,7.01-2.99,11.04,0,7.56,3.89,14.26,9.7,18.14-3.51-.07-6.95-1.08-9.86-2.69v.24c0,10.61,7.57,19.42,17.49,21.45-1.78,.49-3.71,.72-5.72,.72-1.4,0-2.81-.08-4.13-.37,2.83,8.65,10.86,15,20.4,15.21-7.43,5.81-16.86,9.31-27.07,9.31-1.79,0-3.51-.08-5.22-.3,9.67,6.24,21.13,9.8,33.49,9.8,40.18,0,62.14-33.28,62.14-62.13,0-.97-.03-1.9-.08-2.82,4.33-3.08,7.97-6.92,10.94-11.34Z" />
</svg>