<?xml version="1.0" encoding="iso-8859-1"?><!-- Generator: Adobe Illustrator 18.1.1, SVG Export Plug-In . SVG Version: 6.00 Build 0)  -->
<svg version="1.1" id="Capa_1" xmlns="http://www.w3.org/2000/svg" x="0px" y="0px" viewBox="0 0 289.334 289.334"
    style="enable-background:new 0 0 289.334 289.334;" xml:space="preserve">
<g>
	<path id="path6889" d="M119.667,109.667c-5.454,0-10,4.546-10,10v20H59.333v-25c-0.001-2.578-2.091-4.667-4.668-4.666
		c-0.045,0-0.09,0.001-0.135,0.002c-0.799,0.023-1.578,0.251-2.264,0.662l-50,30c-2.21,1.326-2.927,4.193-1.601,6.403
		c0.394,0.657,0.944,1.206,1.601,1.601l50,30c2.211,1.325,5.077,0.607,6.402-1.604c0.434-0.725,0.664-1.553,0.664-2.398v-25h50.334
		v20c0,5.454,4.546,10,10,10h50c5.454,0,10-4.546,10-10v-20h50.334v25c0.001,2.578,2.091,4.667,4.668,4.666
		c0.845,0,1.673-0.23,2.398-0.664l50-30c2.21-1.326,2.927-4.193,1.601-6.403c-0.394-0.657-0.944-1.206-1.601-1.601l-50-30
		c-0.671-0.402-1.432-0.629-2.213-0.66c-2.576-0.103-4.747,1.901-4.85,4.477c-0.002,0.062-0.004,0.123-0.004,0.185v25h-50.334v-20
		c0-5.454-4.546-10-10-10H119.667z M119.667,119.667h50v50h-50V119.667z M50.001,122.909v43.516l-36.264-21.758L50.001,122.909z
		 M239.333,122.909l36.264,21.758l-36.264,21.758V122.909z M126.667,124.167c-1.381,0-2.5,1.119-2.5,2.5v20
		c-0.02,1.381,1.084,2.516,2.465,2.535c1.381,0.02,2.516-1.084,2.535-2.465c0-0.024,0-0.047,0-0.071v-17.5h17.5
		c1.381,0.02,2.516-1.084,2.535-2.465c0.02-1.381-1.084-2.516-2.465-2.535c-0.024,0-0.047,0-0.071,0H126.667z M244.569,132.149
		c-1.38,0.039-2.468,1.189-2.429,2.57c0.024,0.848,0.477,1.627,1.202,2.067l16,10c1.146,0.77,2.699,0.466,3.47-0.68
		c0.77-1.146,0.466-2.699-0.68-3.47c-0.046-0.031-0.093-0.06-0.141-0.088l-16-10C245.568,132.275,245.072,132.136,244.569,132.149z
		 M28.569,142.149c-1.38,0.039-2.468,1.189-2.429,2.57c0.024,0.848,0.477,1.627,1.202,2.067l16,10c1.146,0.77,2.699,0.466,3.47-0.68
		c0.77-1.146,0.466-2.699-0.68-3.47c-0.046-0.031-0.093-0.06-0.141-0.088l-16-10C29.568,142.275,29.072,142.136,28.569,142.149z" />
</g>
    <g>
</g>
    <g>
</g>
    <g>
</g>
    <g>
</g>
    <g>
</g>
    <g>
</g>
    <g>
</g>
    <g>
</g>
    <g>
</g>
    <g>
</g>
    <g>
</g>
    <g>
</g>
    <g>
</g>
    <g>
</g>
    <g>
</g>
</svg>
