<?xml version="1.0" encoding="UTF-8"?><svg id="Layer_1" xmlns="http://www.w3.org/2000/svg" viewBox="0 0 73.1 85.31"><defs><style>.cls-1{fill:#ff004f;}.cls-1,.cls-2,.cls-3{fill-rule:evenodd;}.cls-2{fill:#00b7af;}</style></defs><path class="cls-2" d="M8.45,75.34C-9.18,60.05,2.22,25.99,29.32,30.28v3.15C6.43,32.37-3.64,59.67,8.45,75.34ZM57.88,16.27c2.78,2.23,6.62,3.87,11.92,4.18v3.09c-5.86-1.08-9.57-3.99-11.92-7.27ZM50.53,0c0,1.14,.14,2.37,.33,3.48h-10.8V57.27c0,2.48-.25,4.69-.76,6.62-4.4,9.7-16.86,8.43-20.3,1.78,5.12,3.21,13.55,2.36,17.01-5.26,.5-1.93,.76-4.15,.76-6.62V0h13.77Z"/><path class="cls-3" d="M53.82,3.48v.07c0,1.25,.37,19.25,19.27,20.38,0,16.75,0,0,0,13.91-1.42,.08-12.44-.71-19.3-6.83l-.02,27.09c.17,12.27-6.66,24.29-19.44,26.72-3.58,.68-6.81,.75-12.22-.43C-9.07,75.06,1.3,28.81,32.61,33.76c0,14.93,0,0,0,14.93-12.94-1.9-17.26,8.86-13.83,16.56,3.13,7.01,16.01,8.54,20.5-1.36,.51-1.94,.76-4.14,.76-6.62V3.48h13.77Z"/><path class="cls-1" d="M29.32,33.43c1.07,.05,2.17,.15,3.29,.33,0,14.93,0,0,0,14.93-12.94-1.9-17.26,8.86-13.83,16.56,.06,.14,.13,.28,.2,.42-1.54-.96-2.78-2.28-3.5-3.9-3.43-7.71,.89-18.47,13.82-16.56,0-13.69,0-2.3,0-11.78Zm40.47-9.9c1.03,.19,2.13,.33,3.29,.39,0,16.75,0,0,0,13.91-1.42,.08-12.44-.71-19.3-6.83l-.02,27.09c.17,12.27-6.66,24.29-19.44,26.72-3.58,.68-6.81,.75-12.22-.43-6.09-1.82-10.59-5.06-13.67-9.05,2.74,2.38,6.18,4.31,10.38,5.57,5.41,1.18,8.63,1.1,12.21,.42,12.78-2.42,19.61-14.45,19.44-26.71l.02-27.09c6.86,6.12,17.88,6.92,19.3,6.83,0-12.92-.01,.6-.01-10.82ZM53.82,3.48v.07c0,.73,.13,7.23,4.06,12.71-4.73-3.78-6.42-9.25-7.02-12.78h2.96Z"/></svg>