<?xml version="1.0" encoding="UTF-8"?><svg id="Layer_1" xmlns="http://www.w3.org/2000/svg" viewBox="0 0 123.75 87.19"><defs><style>.cls-1{fill:#fff;}.cls-2{fill:red;}</style></defs><path class="cls-2" d="M121.17,13.61c-1.42-5.36-5.62-9.58-10.94-11.01C100.58,0,61.88,0,61.88,0c0,0-38.7,0-48.35,2.6-5.32,1.43-9.52,5.65-10.94,11.01C0,23.33,0,43.59,0,43.59c0,0,0,20.27,2.59,29.98,1.42,5.36,5.62,9.58,10.94,11.01,9.65,2.6,48.35,2.6,48.35,2.6,0,0,38.7,0,48.35-2.6,5.32-1.43,9.52-5.65,10.94-11.01,2.59-9.71,2.59-29.98,2.59-29.98,0,0,0-20.27-2.59-29.98Z"/><polygon class="cls-1" points="49.22 62 81.56 43.6 49.22 25.19 49.22 62"/></svg>